<svg width="118" height="19" xmlns="http://www.w3.org/2000/svg"><path d="M17.487.5L9.737 18H7.913L.163.5h2l6.7 15.2L15.612.5h1.874zm15.9 15.9V18H21.014V.5h12v1.6h-10.15v6.225h9.05V9.9h-9.05v6.5h10.525zM53.363.5V18h-1.525L40.587 3.8V18h-1.85V.5h1.526l11.275 14.2V.5h1.824zm6.7 0h7.126c1.85 0 3.483.37 4.9 1.113 1.416.741 2.516 1.774 3.3 3.1.783 1.325 1.174 2.837 1.174 4.537 0 1.7-.391 3.212-1.174 4.537-.784 1.326-1.884 2.359-3.3 3.1-1.417.742-3.05 1.113-4.9 1.113h-7.126V.5zm7.025 15.9c1.534 0 2.875-.304 4.025-.912 1.15-.609 2.042-1.45 2.676-2.525.633-1.076.95-2.313.95-3.713s-.317-2.637-.95-3.713c-.634-1.075-1.525-1.916-2.676-2.524-1.15-.609-2.491-.913-4.025-.913h-5.174v14.3h5.174zm22.275 1.75c-1.733 0-3.304-.387-4.712-1.162-1.408-.776-2.508-1.838-3.3-3.188-.792-1.35-1.187-2.867-1.187-4.55 0-1.683.395-3.2 1.187-4.55.792-1.35 1.892-2.412 3.3-3.188C86.058.738 87.63.35 89.362.35c1.734 0 3.296.383 4.688 1.15a8.51 8.51 0 013.287 3.188c.8 1.358 1.2 2.879 1.2 4.562 0 1.683-.4 3.204-1.2 4.563A8.51 8.51 0 0194.05 17c-1.392.767-2.954 1.15-4.688 1.15zm0-1.65c1.384 0 2.634-.312 3.75-.938a6.785 6.785 0 002.625-2.6c.634-1.108.95-2.345.95-3.712s-.316-2.604-.95-3.713a6.785 6.785 0 00-2.625-2.6C91.996 2.313 90.746 2 89.362 2c-1.383 0-2.637.312-3.762.938a6.85 6.85 0 00-2.65 2.6c-.642 1.108-.963 2.345-.963 3.712s.321 2.604.963 3.713a6.85 6.85 0 002.65 2.6c1.125.625 2.38.937 3.762.937zm26.276 1.5l-4-5.625c-.45.05-.917.075-1.4.075h-4.7V18h-1.85V.5h6.55c2.233 0 3.983.533 5.25 1.6 1.266 1.067 1.9 2.533 1.9 4.4 0 1.367-.346 2.52-1.038 3.463-.692.941-1.68 1.62-2.962 2.037l4.275 6h-2.025zm-5.45-7.125c1.733 0 3.058-.383 3.975-1.15.916-.767 1.375-1.842 1.375-3.225 0-1.417-.459-2.504-1.375-3.263-.917-.758-2.242-1.137-3.975-1.137h-4.65v8.775h4.65z" fill="#FFF"/></svg>